<svg width="227" height="97" viewBox="0 0 227 97" fill="none" xmlns="http://www.w3.org/2000/svg">
<path d="M122.121 29.4485L110.284 12.6001H106.141V40.2205H111.586V23.3326L123.423 40.2205H127.567V12.6001H122.121V29.4485ZM155.931 36.6298C158.732 33.8283 160.113 30.435 160.113 26.4103C160.113 22.3856 158.732 18.9923 155.931 16.2302C153.129 13.4287 149.736 12.0477 145.751 12.0477C141.765 12.0477 138.372 13.4287 135.571 16.2302C132.809 18.9923 131.428 22.3856 131.428 26.4103C131.428 30.435 132.809 33.8283 135.571 36.6298C138.372 39.3918 141.765 40.7729 145.751 40.7729C149.736 40.7729 153.129 39.3918 155.931 36.6298ZM139.398 32.9208C137.701 31.2241 136.833 29.0539 136.833 26.4103C136.833 23.7666 137.701 21.5965 139.398 19.8998C141.095 18.2031 143.225 17.335 145.751 17.335C148.276 17.335 150.407 18.2031 152.103 19.8998C153.8 21.5965 154.668 23.7666 154.668 26.4103C154.668 29.0539 153.8 31.2241 152.103 32.9208C150.407 34.6175 148.276 35.4461 145.751 35.4461C143.225 35.4461 141.095 34.6175 139.398 32.9208ZM177.04 40.7729C182.091 40.7729 186.55 38.2476 188.917 34.2624L184.222 31.5398C182.919 33.9467 180.197 35.4461 177.04 35.4461C174.357 35.4461 172.187 34.6175 170.53 32.9208C168.912 31.2241 168.083 29.0539 168.083 26.4103C168.083 23.7272 168.912 21.557 170.53 19.8603C172.187 18.1636 174.357 17.335 177.04 17.335C180.197 17.335 182.84 18.795 184.222 21.2808L188.917 18.5582C186.55 14.573 182.051 12.0477 177.04 12.0477C172.897 12.0477 169.464 13.4287 166.742 16.1908C164.019 18.9133 162.678 22.3462 162.678 26.4103C162.678 30.4744 164.019 33.8678 166.742 36.6298C169.464 39.3918 172.897 40.7729 177.04 40.7729ZM119.636 83.694C124.726 83.694 129.342 81.0108 131.591 76.8678L129.145 75.4868C127.409 78.8407 123.739 81.0108 119.636 81.0108C116.203 81.0108 113.362 79.906 111.192 77.6569C109.021 75.4078 107.917 72.6853 107.917 69.4103C107.917 66.1353 109.021 63.4127 111.192 61.1636C113.362 58.9146 116.203 57.8097 119.636 57.8097C123.739 57.8097 127.409 59.9799 129.145 63.3338L131.591 61.9133C129.263 57.7703 124.726 55.1266 119.636 55.1266C115.453 55.1266 111.981 56.5076 109.258 59.2697C106.536 62.0317 105.155 65.4251 105.155 69.4103C105.155 73.3955 106.536 76.7889 109.258 79.5509C111.981 82.3129 115.453 83.694 119.636 83.694ZM144.661 63.0182C141.623 63.0182 139.176 64.0046 137.243 65.9775C135.309 67.9504 134.362 70.3967 134.362 73.3561C134.362 76.3548 135.349 78.8407 137.282 80.7741C139.216 82.7075 141.741 83.694 144.858 83.694C148.686 83.694 151.803 81.9578 153.539 79.1563L151.25 77.8148C150.146 79.8271 147.896 81.1687 144.898 81.1687C140.676 81.1687 137.559 78.6434 137.046 74.6582H154.368C154.407 74.1452 154.446 73.7112 154.446 73.435C154.446 70.6335 153.539 68.1871 151.724 66.1353C149.948 64.0441 147.581 63.0182 144.661 63.0182ZM144.661 65.5434C146.437 65.5434 148.015 66.1353 149.356 67.2796C150.698 68.4238 151.487 70.0416 151.763 72.1329H137.046C137.559 68.2266 140.557 65.5434 144.661 65.5434ZM167.822 63.0182C164.863 63.0182 162.653 64.2019 161.193 66.5693V63.4916H158.589V83.2205H161.193V72.8826C161.193 67.8714 163.797 65.5434 167.585 65.5434C171.018 65.5434 172.951 67.5952 172.951 71.107V83.2205H175.556V71.107C175.556 66.1748 172.596 63.0182 167.822 63.0182ZM191.047 63.4916H185.365V57.9676L182.761 58.7567V63.4916H178.618V66.0169H182.761V77.9726C182.761 82.5497 185.523 84.0491 191.047 83.2205V80.9319C187.259 81.0897 185.365 81.366 185.365 77.9726V66.0169H191.047V63.4916ZM203.308 63.0182C200.27 63.0182 197.823 64.0046 195.89 65.9775C193.956 67.9504 193.009 70.3967 193.009 73.3561C193.009 76.3548 193.996 78.8407 195.929 80.7741C197.863 82.7075 200.388 83.694 203.505 83.694C207.333 83.694 210.45 81.9578 212.186 79.1563L209.897 77.8148C208.793 79.8271 206.543 81.1687 203.545 81.1687C199.323 81.1687 196.206 78.6434 195.693 74.6582H213.014C213.054 74.1452 213.093 73.7112 213.093 73.435C213.093 70.6335 212.186 68.1871 210.371 66.1353C208.595 64.0441 206.228 63.0182 203.308 63.0182ZM203.308 65.5434C205.084 65.5434 206.662 66.1353 208.003 67.2796C209.345 68.4238 210.134 70.0416 210.41 72.1329H195.693C196.206 68.2266 199.204 65.5434 203.308 65.5434ZM219.84 63.4916H217.236V83.2205H219.84V72.2512C219.84 67.7136 222.484 65.7013 226.074 65.7013V63.176C223.115 63.176 221.063 64.3597 219.84 66.7666V63.4916Z" fill="black"/>
<path d="M76.7917 12.125H20.2083C15.744 12.125 12.125 15.744 12.125 20.2083V76.7917C12.125 81.256 15.744 84.875 20.2083 84.875H76.7917C81.256 84.875 84.875 81.256 84.875 76.7917V20.2083C84.875 15.744 81.256 12.125 76.7917 12.125Z" stroke="black" stroke-width="3" stroke-linecap="round" stroke-linejoin="round"/>
<path d="M27.6877 54.5171L42.4651 42.6616L52.4429 53.3044L66.0836 40.3711" stroke="black" stroke-width="3" stroke-linecap="round" stroke-linejoin="round"/>
</svg>
